<svg width="40" height="40" viewBox="0 0 40 40" xmlns="http://www.w3.org/2000/svg">
  <defs>
    <linearGradient id="bgGradient" x1="0%" y1="0%" x2="100%" y2="100%">
      <stop offset="0%" style="stop-color:#0d1a25;stop-opacity:1" />
      <stop offset="100%" style="stop-color:#09131b;stop-opacity:1" />
    </linearGradient>
  </defs>
  
  <!-- Background -->
  <rect width="40" height="40" rx="8" fill="url(#bgGradient)"/>
  
  <!-- Editor Window -->
  <rect x="6" y="8" width="28" height="24" rx="2" fill="#0a1520" stroke="#1a2530" stroke-width="1"/>
  
  <!-- Window title bar with rounded top corners -->
  <path d="M 7 10 Q 7 9 8 9 L 32 9 Q 33 9 33 10 L 33 13 L 7 13 Z" fill="#0f1a24"/>
  <line x1="7" y1="13" x2="33" y2="13" stroke="#1a2530" stroke-width="1"/>
  
  <!-- Window dots -->
  <circle cx="9.5" cy="11" r="1" fill="#FF652F"/>
  <circle cx="12.5" cy="11" r="1" fill="#FFE400"/>
  <circle cx="15.5" cy="11" r="1" fill="#14A76C"/>
  
  <!-- Code stack lines inside window -->
  <rect x="9" y="16" width="14" height="2.5" rx="1" fill="#FF652F"/>
  <rect x="9" y="20" width="18" height="2.5" rx="1" fill="#5eb7ee"/>
  <rect x="9" y="24" width="10" height="2.5" rx="1" fill="#14A76C"/>
  <rect x="9" y="28" width="16" height="2.5" rx="1" fill="#FFE400"/>
</svg>
